# xmcd CD database file
#
# Track frame offsets:
#	187
#	11177
#	26112
#	49517
#	64275
#	75995
#	90547
#	106107
#	119522
#	131962
#	147450
#	160902
#	174002
#	188167
#	202470
#	216030
#	229590
#	240340
#	251047
#	265570
#	285400
#
# Disc length: 3945 seconds
#
# Revision: 0
# Processed by: cddbd v1.4PL0 Copyright (c) Steve Scherf et al.
# Submitted via: CDex 1.50
#
DISCID=250f6715
DTITLE=JAZZ COLLECTION - JAZZ COLLECTION 1
DYEAR=1900
DGENRE=Jazz
TTITLE0=Hello, Dolly!
TTITLE1=Alexander's Ragtime Band
TTITLE2=Burgundy Street Blues
TTITLE3=Hight Society
TTITLE4=King Porter Stomp
TTITLE5=Snag It
TTITLE6=Tishomingo Blues
TTITLE7=I Know That You Know
TTITLE8=Baby,Won't Tou Please Come Home
TTITLE9=Nobody's Sweetheart
TTITLE10=I've Found A New Baby
TTITLE11=Fudgety Feet
TTITLE12=Avalon
TTITLE13=Wild Man Blues
TTITLE14=Sweet Georgia Brown
TTITLE15=Jazz Me Blues
TTITLE16=But Not For Me
TTITLE17=That's A Plenty
TTITLE18=The World Is Waiting For The Sunrise
TTITLE19=When The Saints Go Marching In
TTITLE20=What A Wonderful World
EXTD=
EXTT0=
EXTT1=
EXTT2=
EXTT3=
EXTT4=
EXTT5=
EXTT6=
EXTT7=
EXTT8=
EXTT9=
EXTT10=
EXTT11=
EXTT12=
EXTT13=
EXTT14=
EXTT15=
EXTT16=
EXTT17=
EXTT18=
EXTT19=
EXTT20=
PLAYORDER=
